<svg fill="none" height="172" width="148" xmlns="http://www.w3.org/2000/svg"><filter id="a" color-interpolation-filters="sRGB" filterUnits="userSpaceOnUse" height="173.449" width="132" x="7.892" y="10.768"><feFlood flood-opacity="0" result="BackgroundImageFix"/><feColorMatrix in="SourceAlpha" result="hardAlpha" values="0 0 0 0 0 0 0 0 0 0 0 0 0 0 0 0 0 0 127 0"/><feOffset dy="2"/><feGaussianBlur stdDeviation="5"/><feColorMatrix values="0 0 0 0 0 0 0 0 0 0 0 0 0 0 0 0 0 0 0.3 0"/><feBlend in2="BackgroundImageFix" result="effect1_dropShadow_2228_1029"/><feBlend in="SourceGraphic" in2="effect1_dropShadow_2228_1029" result="shape"/></filter><mask id="b" height="172" maskUnits="userSpaceOnUse" width="148" x="0" y="0"><path d="M148 41.268c0 10.99-2.4 77.93-6.71 87.31-11.68 25.49-37.42 43.19-67.29 43.19s-55.61-17.7-67.29-43.19C2.4 119.198 0 52.258 0 41.268 0 .398 33.13.768 74 .768s74-.37 74 40.5z" fill="#f0f1f2"/></mask><path d="M148 97.77c0 10.99-2.4 21.43-6.71 30.81-11.68 25.49-37.42 43.19-67.29 43.19s-55.61-17.7-67.29-43.19C2.4 119.2 0 108.76 0 97.77c0-40.87 33.13-74 74-74s74 33.13 74 74z" fill="#f0f1f2"/><g filter="url(#a)" mask="url(#b)"><path d="M17.892 20.39c0-.896.726-1.622 1.623-1.622H128.27c.897 0 1.623.726 1.623 1.623v150.203c0 .897-.726 1.623-1.623 1.623H19.515a1.622 1.622 0 0 1-1.623-1.623V20.391z" fill="#5ba7b1"/><path d="M129.892 76.043h-112v30.435h112z" fill="#7fbec6"/><path d="M17.892 106.478h112v64.116c0 .897-.726 1.623-1.623 1.623H19.515a1.622 1.622 0 0 1-1.623-1.623zm26.094-30.582H40L37.97 63.78h3.978l.179 1.071 1.858 11.046z" fill="#fff"/><path d="M106.741 106.618H103.2l-2.405-14.338h3.54z" fill="#6d493c"/><path d="M72.486 60.595h-31.07l-5.05-30.092H65.19c1.297 0 2.404.937 2.619 2.216z" fill="#fff"/><path d="M41.417 60.595h-3.98l-4.53-26.998a2.655 2.655 0 0 1 2.618-3.095h.842z" fill="#fff"/><path d="M112.681 63.798l-11.539 9.455.442 2.64h-8.355l14.782-12.113H86.22v-3.186h26.461zM74.705 94.919l-14.278 11.699h-4.69L73.231 92.28h1.028l.445 2.64z" fill="#6d493c"/><path d="M74.049 69.91l-3.112 2.55-4.191 3.434H43.984L41.952 63.78H73.02z" fill="#fff"/><path d="M86.22 63.78l-11.603 9.51 5.592 33.328h-3.54l-5.155-30.724-.01-.055-.066.055-37.493 30.724h-4.691L81.529 63.78H32.673v-3.186H86.22v3.187z" fill="#af5947"/><path d="M117.679 78.552v13.73H88.493V75.895h26.531a2.656 2.656 0 0 1 2.655 2.656zm-29.186-2.657v16.386H77.802l-2.749-16.386zM74.261 92.282H51.44L71.504 75.84l2.758 16.44zm-7.518-16.385L46.729 92.283h-3.977l-2.751-16.386zm10.15 41.871h-46a2 2 0 1 0 0 4h46a2 2 0 1 0 0-4z" fill="#d2d5d9"/><path d="M63.892 132.768h-30a5 5 0 0 0 0 10h30a5 5 0 0 0 0-10z" fill="#00735c"/></g></svg>